<svg viewBox="0 0 512 512" id="bags" xmlns="http://www.w3.org/2000/svg"><g id="BULINE"><circle cx="256" cy="256" fill="#3586cb" r="256"/></g><g id="Icons"><path d="m496.45 348.5-94 14.58-134.6 20.92-31.64-204-1.2-7.78-1.54-9.89a3.45 3.45 0 0 1 5.53-3.33l3.43 2.63a5.15 5.15 0 0 0 7.29-1l5.77-7.89a3.47 3.47 0 0 1 4.9-.72l7.46 5.72a5.17 5.17 0 0 0 7.29-1.05l5.77-7.89a3.45 3.45 0 0 1 4.89-.72l6.57 5 .89.69a5.17 5.17 0 0 0 7.29-1.05l4.28-5.86 1.49-2a3.47 3.47 0 0 1 4.9-.71l7.46 5.72a5.17 5.17 0 0 0 7.29-1.05l5.77-7.9a3.46 3.46 0 0 1 4.89-.71l7.46 5.71a5.15 5.15 0 0 0 7.29-1.05l5.77-7.89a3.47 3.47 0 0 1 4.9-.71l7.47 5.71a5.16 5.16 0 0 0 7.28-1l5.77-7.89a3.45 3.45 0 0 1 4.89-.72l2 1.56 5.44 4.16a5.16 5.16 0 0 0 7.28-1l1-1.34 4.22-5.76.58-.8a3.45 3.45 0 0 1 4.89-.7l7.43 5.51a5.16 5.16 0 0 0 7.28-1l5.78-7.9a3.45 3.45 0 0 1 4.89-.7l7.46 5.7a5.15 5.15 0 0 0 7.29-1.1l2.93-4a3.46 3.46 0 0 1 6.21 1.5l1.58 10.15h-.12z" fill="#f6c752"/><path d="m407.36 129.83-.52 24.46-.09 4.55-.24 11.31-.18 8.2-3.9 184.73-.88 41.92-125.49 19.47a5.94 5.94 0 0 1 -6.84-5.63l-1.37-34.84-31.64-204 .7-21.67a3.5 3.5 0 0 1 2 .72l3.43 2.63a5.15 5.15 0 0 0 7.29-1l5.77-7.89a3.47 3.47 0 0 1 4.9-.72l7.46 5.72a5.17 5.17 0 0 0 7.29-1.05l5.77-7.89a3.45 3.45 0 0 1 4.89-.72l6.57 5 .89.69a5.17 5.17 0 0 0 7.29-1.05l4.28-5.86 1.49-2a3.47 3.47 0 0 1 4.9-.71l7.46 5.72a5.17 5.17 0 0 0 7.29-1.05l5.77-7.9a3.46 3.46 0 0 1 4.89-.71l7.46 5.71a5.15 5.15 0 0 0 7.29-1.05l5.77-7.89a3.47 3.47 0 0 1 4.9-.71l7.47 5.71a5.16 5.16 0 0 0 7.28-1l5.77-7.89a3.45 3.45 0 0 1 4.89-.72l2 1.56 5.44 4.16a5.16 5.16 0 0 0 7.28-1l1-1.34z" fill="#f7bb38"/><path d="m500.9 389.59-99.35 15.41-125.49 19.47a5.94 5.94 0 0 1 -6.84-5.63l-1.37-34.84 134.58-20.88 94-14.58 9.26 33.66a5.92 5.92 0 0 1 -4.79 7.39z" fill="#e0a42d"/><circle cx="401.18" cy="166.2" fill="#e88032" r="13.19"/><circle cx="303.42" cy="181.36" fill="#891b1b" r="13.19"/><path d="m406.51 170.15a6.54 6.54 0 0 1 -4.32 2.6 6.62 6.62 0 0 1 -7.57-5.53l-1.74-11.22-3.44-22.13-3-19.41a37.91 37.91 0 0 0 -.79-3.9 42.82 42.82 0 0 0 -83.85 17l3 19.31 3.45 22.24 1.75 11.24a6.63 6.63 0 1 1 -13.1 2l-1.76-11.27-2.8-18.05-3.64-23.5a54.57 54.57 0 0 1 -.63-10.39 56.1 56.1 0 0 1 110.93-9.82c.2 1 .39 2 .55 3.05l3.6 23.22 2.85 18.33.77 4.92 1 6.35a6.66 6.66 0 0 1 -1.26 4.96z" fill="#f7e4b2"/><circle cx="274.29" cy="245.83" fill="#dd4040" r="11.33"/><circle cx="278.03" cy="269.95" fill="#dd4040" r="6.85"/><path d="m236.25 424.47-224.85-34.87a5.94 5.94 0 0 1 -4.81-7.44l9.26-33.65 228.6 35.49-1.37 34.88a5.93 5.93 0 0 1 -6.83 5.59z" fill="#32314b"/><path d="m273.35 159-3.43 2.62a5.15 5.15 0 0 1 -7.28-1l-5.78-7.9a3.46 3.46 0 0 0 -4.86-.72l-7.47 5.71a5.15 5.15 0 0 1 -7.28-1.05l-5.78-7.9a3.46 3.46 0 0 0 -4.89-.7l-7.46 5.71a5.16 5.16 0 0 1 -7.29-1.06l-5.83-7.91a3.47 3.47 0 0 0 -4.9-.71l-7.46 5.71a5.14 5.14 0 0 1 -7.28-1.05l-5.78-7.89a3.45 3.45 0 0 0 -4.89-.71l-7.47 5.71a5.15 5.15 0 0 1 -7.28-1.05l-5.78-7.89a3.45 3.45 0 0 0 -4.89-.71l-7.46 5.71a5.16 5.16 0 0 1 -7.29-1l-5.77-7.9a3.47 3.47 0 0 0 -4.9-.7l-7.43 5.68a5.15 5.15 0 0 1 -7.28-1l-5.78-7.9a3.46 3.46 0 0 0 -4.89-.7l-7.47 5.6a5.14 5.14 0 0 1 -7.28-1l-5.72-7.91a3.47 3.47 0 0 0 -4.9-.71l-7.46 5.71a5.15 5.15 0 0 1 -7.34-1.09l-2.93-4a3.46 3.46 0 0 0 -6.21 1.51l-1.57 10.14h.11l-32.85 211.86 228.6 35.49 32.85-211.8 1.53-9.89a3.45 3.45 0 0 0 -5.48-3.31z" fill="#4f4f74"/><path d="m48.87 395.41-37.47-5.81a5.94 5.94 0 0 1 -4.81-7.44l9.26-33.66 37.48 5.82-9.27 33.68a5.94 5.94 0 0 0 4.81 7.41z" fill="#27273d"/><path d="m248.16 360.19-3.69 23.81-228.6-35.49 32.85-211.8h-.11l1.57-10.14a3.46 3.46 0 0 1 6.22-1.57l2.92 4a5.15 5.15 0 0 0 7.29 1.06l7.46-5.71a3.48 3.48 0 0 1 4.11-.08l-23.87 153.88a51.36 51.36 0 0 0 42.88 58.62z" fill="#3e436d"/><circle cx="111.12" cy="166.2" fill="#27273d" r="13.19"/><circle cx="208.88" cy="181.36" fill="#891b1b" r="13.19"/><path d="m207.86 187.92a6.63 6.63 0 0 1 -5.54-7.57l8.2-52.82a42.83 42.83 0 0 0 -84.65-13.12l-8.19 52.81a6.63 6.63 0 1 1 -13.11-2l8.19-52.82a56.09 56.09 0 1 1 110.86 17.2l-8.19 52.81a6.63 6.63 0 0 1 -7.57 5.51z" fill="#a99bd4"/><circle cx="238.01" cy="245.83" fill="#dd4040" r="11.33"/><circle cx="234.27" cy="269.95" fill="#dd4040" r="6.85"/><circle cx="445.63" cy="185.84" fill="#f9d98a" r="12.69"/><circle cx="450.28" cy="212.77" fill="#f9d98a" r="7.66"/><path d="m379.37 438.84h-247.13a6.44 6.44 0 0 1 -6.4-7.18l4.34-37.66h251.25l4.34 37.66a6.43 6.43 0 0 1 -6.4 7.18z" fill="#991c1c"/><path d="m375 147.74-3.24 3.39a5.59 5.59 0 0 1 -8 .08l-7.52-7.51a3.76 3.76 0 0 0 -5.37.06l-7.06 7.37a5.59 5.59 0 0 1 -8 .08l-7.51-7.51a3.76 3.76 0 0 0 -5.37.06l-7.06 7.37a5.6 5.6 0 0 1 -8 .08l-7.51-7.51a3.76 3.76 0 0 0 -5.37.06l-6.99 7.37a5.59 5.59 0 0 1 -8 .08l-7.51-7.51a3.76 3.76 0 0 0 -5.37.06l-7.12 7.37a5.59 5.59 0 0 1 -8 .08l-7.51-7.51a3.76 3.76 0 0 0 -5.37.06l-7.06 7.37a5.59 5.59 0 0 1 -8 .08l-7.52-7.51a3.76 3.76 0 0 0 -5.37.06l-7.06 7.37a5.59 5.59 0 0 1 -8 .08l-7.51-7.51a3.76 3.76 0 0 0 -5.37.06l-7.06 7.37a5.6 5.6 0 0 1 -8 .08l-7.51-7.51a3.76 3.76 0 0 0 -5.37.06l-7.06 7.37a5.59 5.59 0 0 1 -8 .08l-3.81-3.81a3.76 3.76 0 0 0 -6.42 2.66v11.15h.13v232.79h251.3v-232.79h.05v-10.87a3.76 3.76 0 0 0 -6.48-2.6z" fill="#db1b1b"/><path d="m173.42 438.85h-41.18a6.45 6.45 0 0 1 -6.4-7.18l4.34-37.67h41.18l-4.36 37.67a6.45 6.45 0 0 0 6.42 7.18z" fill="#891b1b"/><path d="m381.45 367.86v26.14h-251.25v-232.8h-.13v-11.14a3.76 3.76 0 0 1 6.42-2.66l3.81 3.81a5.59 5.59 0 0 0 8-.08l7.07-7.37a3.78 3.78 0 0 1 4.39-.77v169.09a55.77 55.77 0 0 0 55.77 55.78z" fill="#c61c1c"/><circle cx="202.08" cy="182.47" fill="#891b1b" r="14.33"/><circle cx="309.53" cy="182.47" fill="#891b1b" r="14.33"/><path d="m309.53 189.67a7.2 7.2 0 0 1 -7.21-7.2v-58a46.52 46.52 0 1 0 -93 0v58.05a7.21 7.21 0 0 1 -14.41 0v-58a60.93 60.93 0 0 1 121.85 0v58.05a7.2 7.2 0 0 1 -7.23 7.1z" fill="#fc715a"/><g fill="#dd4040"><circle cx="351.53" cy="246.81" r="12.31"/><circle cx="351.53" cy="273.32" r="7.44"/></g></g></svg>